<?xml version="1.0" encoding="UTF-8"?>
<svg version="1.1" xmlns="http://www.w3.org/2000/svg" width="512" height="512">
<path d="M0 0 C1.94670125 -0.00693689 3.8934023 -0.01393199 5.84010315 -0.02098083 C12.02491493 -0.04012839 18.20969331 -0.04489709 24.39453125 -0.046875 C25.44508194 -0.04761143 26.49563263 -0.04834785 27.57801819 -0.0491066 C58.47427565 -0.06676931 89.24595255 0.11161888 120.03369141 3.00067139 C122.13113762 3.19605526 124.22927612 3.37946851 126.328125 3.55908203 C171.68263155 7.54558996 211.73669469 25.257304 241.75976562 60.43994141 C265.38960388 89.2278449 275.85497367 122.44332183 279.02410889 159.13262939 C279.21285419 161.26903476 279.4163561 163.403693 279.62158203 165.53857422 C285.28478261 225.77104927 285.19821101 288.85629137 279.40948486 349.07403564 C279.21295178 351.14086217 279.02974114 353.20841564 278.85107422 355.27685547 C275.02093079 398.63497106 258.65628928 440.6389319 224.72802734 469.45947266 C169.76025577 515.09898183 97.85695905 512.64241099 30.02222061 512.52077866 C26.91230313 512.5155498 23.80239568 512.51362791 20.69247437 512.51211548 C-8.48789758 512.48741969 -37.5507558 512.18928063 -66.62231445 509.40881348 C-68.75722512 509.20651202 -70.89289086 509.01683454 -73.02929688 508.83105469 C-118.71549016 504.81695328 -159.00721391 487.51856999 -189.34570312 451.96630859 C-212.97554138 423.1784051 -223.44091117 389.96292817 -226.61004639 353.27362061 C-226.79879169 351.13721524 -227.0022936 349.002557 -227.20751953 346.86767578 C-232.87072011 286.63520073 -232.78414851 223.54995863 -226.99542236 163.33221436 C-226.79888928 161.26538783 -226.61567864 159.19783436 -226.43701172 157.12939453 C-222.84499354 116.46691221 -208.91522945 82.63002965 -181.79296875 52.203125 C-181.10074219 51.42582031 -180.40851563 50.64851563 -179.6953125 49.84765625 C-145.01431161 13.16197322 -98.68884945 5.2323989 -50.79296875 1.8515625 C-49.73054207 1.77518555 -49.73054207 1.77518555 -48.64665222 1.69726562 C-46.02947563 1.51779267 -43.41174003 1.35784725 -40.79296875 1.203125 C-39.77448884 1.14254158 -39.77448884 1.14254158 -38.73543358 1.08073425 C-25.81792255 0.32841271 -12.93786675 0.02886638 0 0 Z " fill="#FBA200" transform="translate(229.79296875,-0.203125)"/>
<path d="M0 0 C8.77181367 6.76199769 12.47032974 18.51448994 17.01171875 28.28125 C17.67465056 29.70112446 18.33765673 31.12096421 19.00073242 32.54077148 C24.1739022 43.6362357 29.24926156 54.77537829 34.29833984 65.92773438 C39.19361714 76.73592522 44.15537841 87.51248493 49.13671875 98.28125 C54.69748515 110.30501758 60.22875703 122.34111622 65.69921875 134.40625 C70.95822448 146.0047273 76.2520379 157.58661997 81.57421875 169.15625 C87.3594397 181.73303325 93.13243868 194.31527661 98.88671875 206.90625 C99.38557083 207.99761261 99.38557083 207.99761261 99.89450073 209.11102295 C102.52085053 214.8572538 102.52085053 214.8572538 103.63673401 217.30612183 C104.98059064 220.25524041 106.33156363 223.20056886 107.69726562 226.13964844 C108.15681641 227.13254883 108.61636719 228.12544922 109.08984375 229.1484375 C109.48848633 230.0029248 109.88712891 230.85741211 110.29785156 231.73779297 C111.13671875 233.78125 111.13671875 233.78125 111.13671875 235.78125 C111.79671875 235.78125 112.45671875 235.78125 113.13671875 235.78125 C113.3999292 234.93643066 113.66313965 234.09161133 113.93432617 233.22119141 C115.19723925 229.60810608 116.72627969 226.18921584 118.375 222.7421875 C118.69185257 222.07238861 119.00870514 221.40258972 119.3351593 220.7124939 C120.01577715 219.27455374 120.69790549 217.83732773 121.38140869 216.40075684 C123.20640288 212.56467016 125.02016124 208.7232685 126.8359375 204.8828125 C127.20271606 204.1079248 127.56949463 203.33303711 127.9473877 202.53466797 C131.25233277 195.54894007 134.51453502 188.54403283 137.76171875 181.53125 C143.65023925 168.82339008 149.56829124 156.1295504 155.49508667 143.43951416 C157.52223935 139.0986637 159.54686538 134.75664133 161.5703125 130.4140625 C167.75266358 117.14850975 173.96064076 103.89546059 180.19921875 90.65625 C186.67507353 76.91312437 193.08827355 63.14202675 199.47753906 49.35839844 C202.21945699 43.4468944 204.96580638 37.53746795 207.71746826 31.63049316 C208.3192744 30.33801449 208.9205719 29.04529883 209.52130127 27.75231934 C211.37864017 23.75504026 213.25126203 19.76533937 215.13671875 15.78125 C215.59264404 14.80889404 216.04856934 13.83653809 216.51831055 12.8347168 C216.94281494 11.95211182 217.36731934 11.06950684 217.8046875 10.16015625 C218.1658667 9.4029126 218.5270459 8.64566895 218.89916992 7.86547852 C222.17729397 2.34459768 227.69992797 -1.84656397 233.8046875 -3.78515625 C242.72094764 -5.44295336 251.34052048 -5.00997403 259 0 C264.62117748 4.33324174 267.91204492 10.10722851 270.13671875 16.78125 C270.23248917 18.4110692 270.2711931 20.04452409 270.27652645 21.67714596 C270.28221769 22.69287023 270.28790893 23.70859449 270.29377264 24.75509828 C270.29495251 25.87433122 270.29613239 26.99356417 270.29734802 28.14671326 C270.30497975 29.92645392 270.30497975 29.92645392 270.31276566 31.74214894 C270.32577642 35.0414729 270.33425684 38.34075174 270.34073865 41.6400913 C270.34710899 44.46874292 270.35717929 47.29737641 270.36729931 50.12601673 C270.40063098 59.44742615 270.42214861 68.76884662 270.44049916 78.09029612 C270.44529471 80.51833817 270.45027799 82.94637977 270.45530438 85.37442136 C270.48628135 100.45697703 270.51296311 115.53953656 270.52972317 130.62211514 C270.53367259 134.11615951 270.53767559 137.61020381 270.54174805 141.10424805 C270.54275641 141.97266333 270.54376477 142.84107861 270.54480369 143.73580951 C270.56179743 157.79229456 270.60289116 171.84860314 270.65377104 185.90500211 C270.7055984 200.34219292 270.73467236 214.77929312 270.74192005 229.21657616 C270.74657641 237.32016965 270.76126509 245.42347441 270.80166435 253.52697563 C270.83604296 260.43118784 270.8498723 267.33505923 270.83724021 274.2393521 C270.83143104 277.7590242 270.8351517 281.27797624 270.86540985 284.79753876 C270.89313381 288.6232617 270.88356017 292.44719491 270.86497498 296.27293396 C270.8817699 297.37209041 270.89856483 298.47124685 270.9158687 299.60371107 C270.80975194 308.3815502 268.20076333 316.10862457 262.36368459 322.81979173 C256.60134455 328.30153517 250.45022544 329.9397094 242.63671875 330.15625 C234.83319595 329.93998609 228.64668167 328.31171119 222.90957832 322.80631638 C215.12803044 313.91776637 214.2641825 304.09369751 214.36376953 292.82324219 C214.35558116 291.25497425 214.34476869 289.68671818 214.33155823 288.1184845 C214.30332753 283.89800564 214.31140562 279.67831376 214.32642603 275.45779705 C214.33585657 271.03349021 214.31130906 266.60936894 214.29049683 262.18511963 C214.25625933 253.82373678 214.25220377 245.46262783 214.25922191 237.1011889 C214.26573092 227.57501175 214.23824281 218.04902525 214.2080195 208.52290487 C214.14665202 188.94233179 214.12758642 169.36190888 214.13671875 149.78125 C211.83755148 154.64472555 209.53897167 159.50847819 207.2408905 164.37246704 C206.46221532 166.02036685 205.68339124 167.66819632 204.90440369 169.31594849 C198.98715669 181.83277109 193.12602252 194.37395276 187.30859375 206.9375 C183.95294281 214.18370015 180.57792626 221.42078095 177.19921875 228.65625 C176.9077597 229.28041809 176.61630066 229.90458618 176.31600952 230.54766846 C175.13685104 233.07279023 173.95767332 235.59790301 172.77836609 238.12295532 C170.75120671 242.46381519 168.72656342 246.80584208 166.703125 251.1484375 C160.7148135 263.99857537 154.7124974 276.84214161 148.68499756 289.6739502 C147.99817838 291.13652513 147.31184051 292.5993262 146.6260376 294.06237793 C144.76327248 298.03539954 142.89210405 302.00418345 141.00299072 305.9647522 C140.15652876 307.73971011 139.31429682 309.51668332 138.47216797 311.29370117 C137.9567041 312.3582251 137.44124023 313.42274902 136.91015625 314.51953125 C136.46591309 315.44290283 136.02166992 316.36627441 135.56396484 317.31762695 C132.25392578 323.0312096 126.84419197 327.34879799 120.53515625 329.34375 C112.78338816 330.7577533 104.61830554 331.13695099 97.734375 326.8984375 C97.20714844 326.52976562 96.67992187 326.16109375 96.13671875 325.78125 C95.27046875 325.245 94.40421875 324.70875 93.51171875 324.15625 C86.70293643 317.34746768 83.10758836 307.71871653 79.24685669 299.04205322 C77.95976367 296.14976581 76.65861417 293.26386247 75.35856628 290.37738037 C74.66973274 288.8476221 73.98160067 287.31754778 73.29414368 285.78717041 C69.82928862 278.07815697 66.30173339 270.39843532 62.76577759 262.72183228 C60.97242634 258.8283271 59.18148012 254.93371629 57.390625 251.0390625 C57.03592636 250.26776505 56.68122772 249.49646759 56.31578064 248.70179749 C52.24743965 239.85196124 48.2010119 230.99212728 44.15530396 222.13192749 C40.32688813 213.74818144 36.49012896 205.36838526 32.63671875 196.99609375 C32.2598291 196.17698517 31.88293945 195.35787659 31.49462891 194.51394653 C29.39506706 189.95129387 27.29383673 185.38941992 25.18920898 180.82910156 C22.0451854 173.98618622 18.94263268 167.12693017 15.890625 160.24243164 C15.52682739 159.42281197 15.16302979 158.60319229 14.78820801 157.75873566 C13.90396685 155.76642298 13.02028321 153.77386288 12.13671875 151.78125 C12.13709578 152.57932446 12.1374728 153.37739891 12.13786125 154.19965744 C12.1449915 173.65666287 12.11896227 193.11336849 12.05644035 212.57027817 C12.0269966 221.9796908 12.00860169 231.38887839 12.01660156 240.79833984 C12.02354927 249.0037093 12.00937468 257.20873017 11.97028267 265.4140141 C11.95032649 269.75509151 11.94064465 274.09562225 11.95629501 278.43672943 C11.97072146 282.53118756 11.95669342 286.62460607 11.92176628 290.7189312 C11.91386282 292.21355023 11.91594728 293.70826458 11.92932701 295.20284462 C12.00817 304.8321533 10.79006082 312.70317457 5.13671875 320.78125 C-2.03641259 327.79316372 -8.16503128 330.1843647 -18.19311523 330.14916992 C-23.68979722 330.00747171 -27.4428487 328.97201786 -31.86328125 325.78125 C-32.89453125 325.12125 -33.92578125 324.46125 -34.98828125 323.78125 C-40.78222636 318.59218512 -44.11533676 310.39673252 -44.61274147 302.76954365 C-44.64269345 300.61767375 -44.64070691 298.46519189 -44.61172485 296.31330872 C-44.61967367 295.11700842 -44.62762248 293.92070813 -44.63581216 292.68815631 C-44.65161267 289.40289471 -44.64086523 286.11902126 -44.61831117 282.83384097 C-44.60050032 279.27756405 -44.61755014 275.72142193 -44.6300354 272.16514587 C-44.64894076 265.21328941 -44.63587544 258.26185031 -44.61150952 251.31002501 C-44.58417138 243.20633183 -44.58755371 235.10273633 -44.59177618 226.99900874 C-44.59814531 212.53742112 -44.57487969 198.07603101 -44.53564453 183.61450195 C-44.49761951 169.59523508 -44.48347624 155.57619952 -44.49462891 141.55688477 C-44.50675373 126.27042832 -44.5063751 110.98407338 -44.48365724 95.69762534 C-44.48124278 94.06675987 -44.47883081 92.43589439 -44.47642136 90.80502892 C-44.47521428 90.00271498 -44.4740072 89.20040104 -44.47276355 88.37377456 C-44.46501748 82.73025361 -44.46578763 77.08677054 -44.46959305 71.44324684 C-44.473844 64.56441989 -44.46333528 57.68579508 -44.43436594 50.80702499 C-44.41991328 47.30000046 -44.41169336 43.79326981 -44.42085266 40.28622055 C-44.4273047 36.47990241 -44.4091129 32.67446768 -44.38467407 28.86824036 C-44.39223272 27.76648446 -44.39979137 26.66472857 -44.40757906 25.52958614 C-44.30232653 16.25649446 -41.81736585 9.1697575 -35.5078125 2.28515625 C-25.96731942 -6.4395227 -10.66061748 -6.9729825 0 0 Z " fill="#FEFEFE" transform="translate(142.86328125,93.21875)"/>
</svg>
